#!OML:ASF H:\ManfredETheater\Project 1\Capture day 1\Session 1\subject.ASF
:FULLY-SPECIFIED
:DEGREES
122
root 0.70436 2.77816 -12.4012 17.1957 45.4953 -210.219
lowerback 57.2606 -3.74635 5.51133
upperback 10.3067 2.88658 3.76168
thorax -9.72739 2.95541 0.120352
lowerneck -8.93687 -6.62462 -8.46881
upperneck 6.65132 -8.31257 5.52619
head 4.02337 -4.03535 2.51052
rclavicle -2.06736e-014 -5.83433e-014
rhumerus 0.668509 5.29474 -54.3517
rradius 98.6023
rwrist -13.4775
rhand -35.1163 -14.9671
rfingers 7.12502
rthumb -8.25706 -44.7857
lclavicle -2.06736e-014 -5.83433e-014
lhumerus 18.2201 -33.1328 79.7021
lradius 100.446
lwrist -10.9899
lhand -33.1601 -0.0480997
lfingers 7.12502
lthumb -6.36874 29.8362
rfemur -58.4509 -62.0015 22.8551
rtibia 133.888
rfoot 14.9815 1.6926
rtoes 7.80705
lfemur -90.1913 18.376 -20.2838
ltibia 121.813
lfoot 16.9059 -8.6135
ltoes -0.942703
123
root 0.641665 2.47758 -12.6822 22.8258 48.4251 -207.599
lowerback 57.1298 -4.65562 6.75421
upperback 9.47988 2.67551 4.02317
thorax -10.6014 2.77258 -0.0560764
lowerneck -8.95558 -6.4435 -8.25217
upperneck 6.73876 -8.06272 5.09024
head 4.00835 -3.93332 2.3612
rclavicle -2.22639e-014 3.27995e-014
rhumerus 1.78799 5.15851 -54.9333
rradius 98.1988
rwrist -14.0896
rhand -34.7582 -13.7342
rfingers 7.12502
rthumb -7.91136 -43.5662
lclavicle -2.22639e-014 3.27995e-014
lhumerus 12.1543 -28.9177 82.6511
lradius 102.019
lwrist -7.69231
lhand -29.2966 -0.0614566
lfingers 7.12502
lthumb -2.6382 29.902
rfemur -60.2524 -64.2335 24.2951
rtibia 135.17
rfoot 14.1704 0.240988
rtoes 8.17075
lfemur -91.8121 19.3283 -22.758
ltibia 124.451
lfoot 17.0637 -10.2813
ltoes -2.08521
124
root 0.591667 2.2324 -12.932 29.5526 51.2312 -203.971
lowerback 56.0773 -5.48936 8.20943
upperback 8.78429 2.48335 4.27626
thorax -11.2387 2.57501 -0.346341
lowerneck -8.67253 -6.4102 -8.19193
upperneck 6.87702 -8.02393 4.70618
head 3.98324 -3.94076 2.24404
rclavicle 3.18055e-015 8.98507e-014
rhumerus 2.54527 4.64414 -55.6714
rradius 97.9409
rwrist -13.9775
rhand -34.5625 -11.9803
rfingers 7.12502
rthumb -7.72252 -41.8193
lclavicle 3.18055e-015 8.98507e-014
lhumerus 6.62875 -24.5139 85.0449
lradius 103.415
lwrist -3.73051
lhand -26.1299 -0.393542
lfingers 7.12502
lthumb 0.420268 29.5858
rfemur -62.4272 -66.7224 26.235
rtibia 136.484
rfoot 13.3185 -1.1749
rtoes 8.18386
lfemur -93.5092 20.3788 -25.2009
ltibia 127.171
lfoot 17.2804 -11.9532
ltoes -2.65872
125
root 0.556039 2.05167 -13.157 37.6858 53.7249 -198.95
lowerback 54.002 -6.14993 9.63115
upperback 8.31659 2.2156 4.56064
thorax -11.5059 2.34012 -0.573881
lowerneck -8.22981 -6.48667 -8.2729
upperneck 7.04555 -8.13833 4.42179
head 3.9611 -4.02373 2.17237
rclavicle -2.62396e-014 7.73272e-014
rhumerus 3.17822 3.89856 -56.481
rradius 97.776
rwrist -13.3662
rhand -34.5317 -9.96379
rfingers 7.12502
rthumb -7.69278 -39.8039
lclavicle -2.62396e-014 7.73272e-014
lhumerus 1.63514 -20.0085 86.757
lradius 104.514
lwrist 0.0251341
lhand -24.1284 -0.923741
lfingers 7.12502
lthumb 2.3534 29.043
rfemur -65.0137 -69.613 28.523
rtibia 137.85
rfoot 12.5406 -2.3161
rtoes 7.99997
lfemur -95.2066 21.4617 -27.569
ltibia 129.95
lfoot 17.6824 -13.575
ltoes -2.53584
126
root 0.534702 1.94093 -13.3683 47.3249 55.5121 -192.47
lowerback 50.8858 -6.47951 10.8
upperback 8.09935 1.88386 4.87498
thorax -11.3296 2.08656 -0.67041
lowerneck -7.72063 -6.64103 -8.47243
upperneck 7.25305 -8.36342 4.28462
head 3.95808 -4.15694 2.15776
rclavicle -1.35174e-014 -6.93758e-014
rhumerus 3.77603 2.9712 -57.2605
rradius 97.644
rwrist -12.4696
rhand -34.647 -7.92047
rfingers 7.12502
rthumb -7.80412 -37.7564
lclavicle -1.35174e-014 -6.93758e-014
lhumerus -2.91894 -15.6939 87.7749
lradius 105.22
lwrist 2.80251
lhand -23.5207 -1.4821
lfingers 7.12502
lthumb 2.94025 28.4774
rfemur -68.6902 -72.6606 31.5481
rtibia 139.28
rfoot 12.0637 -3.01438
rtoes 7.66168
lfemur -96.8869 22.6524 -29.8042
ltibia 132.737
lfoot 18.3632 -15.1152
ltoes -1.86624
127
root 0.527413 1.89613 -13.5794 57.9545 56.2019 -184.98
lowerback 47.0196 -6.37561 11.3403
upperback 8.07737 1.47901 5.21642
thorax -10.7546 1.81723 -0.476472
lowerneck -7.16965 -6.77177 -8.64473
upperneck 7.49274 -8.57188 4.24144
head 3.9601 -4.27622 2.17034
rclavicle 1.17283e-014 -7.35503e-014
rhumerus 4.44459 2.09712 -57.9847
rradius 97.4693
rwrist -11.4516
rhand -34.8941 -6.06241
rfingers 7.12502
rthumb -8.04253 -35.8894
lclavicle 1.17283e-014 -7.35503e-014
lhumerus -7.21226 -11.6739 88.1095
lradius 105.495
lwrist 4.22505
lhand -24.2284 -1.78993
lfingers 7.12502
lthumb 2.25679 28.1779
rfemur -73.7567 -75.6315 35.4365
rtibia 140.748
rfoot 11.9444 -3.21183
rtoes 7.6432
lfemur -98.3543 24.093 -31.7616
ltibia 135.423
lfoot 19.2925 -16.514
ltoes -0.812885
128
root 0.531868 1.90583 -13.8025 68.5052 55.7558 -177.552
lowerback 42.1006 -5.75348 10.9785
upperback 8.93406 1.00411 5.844
thorax -9.89904 1.56875 0.0928308
lowerneck -6.74869 -6.83086 -8.82006
upperneck 7.82233 -8.67727 4.2399
head 4.00644 -4.3414 2.19823
rclavicle -1.82882e-014 8.49804e-015
rhumerus 5.31662 1.42188 -58.5306
rradius 97.1652
rwrist -10.4627
rhand -35.2474 -4.58459
rfingers 7.12502
rthumb -8.38351 -34.3982
lclavicle -1.82882e-014 8.49804e-015
lhumerus -11.2907 -8.00642 87.8714
lradius 105.314
lwrist 4.22239
lhand -25.8821 -1.6131
lfingers 7.12502
lthumb 0.659575 28.3656
rfemur -80.4994 -78.1774 40.687
rtibia 142.149
rfoot 12.1294 -3.00299
rtoes 7.85349
lfemur -99.5317 25.9458 -33.128
ltibia 137.881
lfoot 20.2494 -17.7534
ltoes 0.24923
129
root 0.544554 1.95205 -14.0418 77.8134 54.1328 -171.32
lowerback 38.1057 -4.96563 9.78835
upperback 8.93414 0.669802 6.19506
thorax -8.71219 1.36041 1.13775
lowerneck -6.61324 -6.76254 -8.86847
upperneck 8.26848 -8.58774 4.11114
head 4.11149 -4.3107 2.17072
rclavicle -6.36111e-015 -9.34288e-015
rhumerus 6.55485 1.07539 -58.8353
rradius 96.6379
rwrist -9.58425
rhand -35.6263 -3.66465
rfingers 7.12502
rthumb -8.74921 -33.4633
lclavicle -6.36111e-015 -9.34288e-015
lhumerus -15.165 -4.66529 87.193
lradius 104.658
lwrist 2.74877
lhand -28.31 -0.588691
lfingers 7.12502
lthumb -1.68533 29.3844
rfemur -88.6039 -79.7772 46.7124
rtibia 143.43
rfoot 12.6023 -2.64438
rtoes 9.06013
lfemur -100.142 28.5401 -33.8969
ltibia 139.89
lfoot 20.7319 -18.9067
ltoes 0.712483
130
root 0.560124 2.01639 -14.2959 85.5526 51.6626 -166.523
lowerback 34.3646 -4.04406 7.91719
upperback 9.03287 0.407737 6.43558
thorax -7.47934 1.1796 2.34656
lowerneck -6.68233 -6.62799 -8.77159
upperneck 8.88144 -8.39884 3.92037
head 4.28632 -4.22762 2.10016
rclavicle -5.56597e-015 -1.25234e-014
rhumerus 7.95089 0.840008 -58.9006
rradius 95.863
rwrist -8.89616
rhand -35.9746 -3.40619
rfingers 7.12502
rthumb -9.08532 -33.1905
lclavicle -5.56597e-015 -1.25234e-014
lhumerus -18.8807 -1.83091 86.165
lradius 103.639
lwrist 0.563034
lhand -30.327 1.30646
lfingers 7.12502
lthumb -3.63324 31.2552
rfemur -96.5989 -80.6625 52.2124
rtibia 144.455
rfoot 13.0563 -2.20792
rtoes 10.4264
lfemur -99.8125 31.4178 -33.9089
ltibia 141.202
lfoot 20.275 -19.6692
ltoes 0.750346
131
root 0.574848 2.08305 -14.5527 91.5769 48.6798 -163.203
lowerback 31.1195 -3.07323 5.52508
upperback 9.38343 0.287038 6.36973
thorax -6.46588 1.08106 3.77885
lowerneck -6.88121 -6.47918 -8.54396
upperneck 9.59268 -8.18626 3.68335
head 4.5049 -4.12906 1.99195
rclavicle -2.14687e-014 -3.1408e-014
rhumerus 9.45092 0.611892 -58.7138
rradius 94.8402
rwrist -8.49665
rhand -36.1802 -3.79689
rfingers 7.12502
rthumb -9.28373 -33.5725
lclavicle -2.14687e-014 -3.1408e-014
lhumerus -22.4116 0.463835 84.8496
lradius 102.321
lwrist -1.84872
lhand -31.545 3.73045
lfingers 7.12502
lthumb -4.80939 33.6559
rfemur -102.204 -80.7263 55.078
rtibia 145.09
rfoot 13.4028 -1.96693
rtoes 11.8341
lfemur -98.2129 34.309 -33.0535
ltibia 141.599
lfoot 18.6748 -19.7352
ltoes 0.651811
132
root 0.587964 2.14513 -14.8038 96.3625 45.1821 -160.95
lowerback 28.9431 -2.16847 2.82156
upperback 9.21016 0.280074 6.10707
thorax -5.6404 0.975563 5.00066
lowerneck -7.17327 -6.34944 -8.21535
upperneck 10.3625 -8.00645 3.49761
head 4.75852 -4.03738 1.87832
rclavicle -1.59028e-014 -8.0309e-014
rhumerus 10.9869 0.300365 -58.3025
rradius 93.6115
rwrist -8.45691
rhand -36.2026 -4.68131
rfingers 7.12502
rthumb -9.30529 -34.4559
lclavicle -1.59028e-014 -8.0309e-014
lhumerus -25.6978 2.22532 83.3066
lradius 100.7
lwrist -4.2264
lhand -31.9253 6.16556
lfingers 7.12502
lthumb -5.17661 36.0823
rfemur -105.787 -80.1345 55.4179
rtibia 145.327
rfoot 13.5646 -1.98971
rtoes 13.0811
lfemur -95.3377 36.2334 -31.7555
ltibia 140.935
lfoot 16.1489 -18.4502
ltoes 0.789791
